<?xml version="1.0" standalone="no"?>
<!DOCTYPE svg PUBLIC "-//W3C//DTD SVG 20010904//EN"
 "http://www.w3.org/TR/2001/REC-SVG-20010904/DTD/svg10.dtd">
<svg version="1.0" xmlns="http://www.w3.org/2000/svg"
 width="1080.000000pt" height="1080.000000pt" viewBox="0 0 1080.000000 1080.000000"
 preserveAspectRatio="xMidYMid meet">

<g transform="translate(0.000000,1080.000000) scale(0.100000,-0.100000)"
fill="#000000" stroke="none">
<path d="M5536 8689 c-14 -77 -47 -411 -50 -519 -1 -42 0 -44 32 -51 18 -4 34
-3 37 1 2 4 7 54 11 113 4 58 10 110 13 115 3 5 31 6 66 1 33 -4 99 -8 146 -8
71 -1 88 2 93 15 15 40 9 44 -71 45 -43 0 -109 6 -148 12 l-70 13 3 99 c2 55
8 104 12 109 9 9 84 5 229 -14 97 -13 110 -9 111 28 0 25 -109 46 -302 58
l-107 7 -5 -24z"/>
<path d="M4612 8470 c-18 -11 -43 -37 -54 -57 l-22 -37 -13 33 c-12 29 -17 32
-41 26 -15 -4 -29 -8 -31 -11 -4 -3 10 -61 43 -179 8 -27 21 -75 28 -105 8
-30 20 -65 26 -77 7 -12 12 -31 12 -42 0 -17 6 -21 30 -21 40 0 45 16 25 87
-39 142 -46 180 -42 216 7 53 32 87 79 105 32 13 38 19 34 36 -3 12 -6 27 -6
34 0 18 -31 15 -68 -8z"/>
<path d="M6066 8438 c-18 -65 -32 -117 -46 -183 -6 -27 -16 -66 -22 -85 -31
-98 -29 -114 13 -125 28 -7 29 -4 80 180 12 44 31 92 42 107 25 34 77 52 127
44 35 -5 38 -4 43 22 3 15 3 30 0 34 -8 15 -118 9 -141 -8 -21 -15 -22 -14
-22 13 0 33 -16 53 -41 53 -13 0 -22 -15 -33 -52z"/>
<path d="M6454 8333 c-32 -6 -102 -70 -124 -114 -24 -47 -28 -166 -6 -207 39
-75 135 -132 223 -132 52 0 125 31 159 67 65 69 85 183 46 260 -26 51 -94 110
-141 123 -35 10 -115 11 -157 3z m173 -84 c79 -60 90 -162 27 -245 -59 -77
-186 -71 -249 11 -45 59 -28 173 34 229 38 35 146 38 188 5z"/>
<path d="M4120 8301 c-14 -4 -45 -20 -69 -35 -74 -47 -110 -158 -78 -246 19
-53 56 -104 96 -131 31 -21 47 -24 121 -24 97 0 124 11 189 76 48 48 52 82 11
87 -18 2 -30 -5 -44 -26 -56 -85 -193 -104 -257 -36 l-24 25 25 19 c14 11 28
20 32 20 7 0 79 32 216 96 33 16 52 31 52 42 0 27 -46 88 -84 111 -38 24 -144
36 -186 22z m124 -65 c18 -8 41 -24 49 -37 16 -22 15 -23 -11 -39 -16 -10 -75
-38 -132 -63 -101 -44 -105 -45 -114 -26 -13 27 8 107 35 134 41 41 116 55
173 31z"/>
<path d="M5060 8175 c-24 -64 49 -106 86 -50 26 39 6 75 -41 75 -29 0 -37 -5
-45 -25z"/>
<path d="M6948 8108 c-13 -18 -27 -40 -33 -50 -5 -10 -38 -58 -72 -107 -35
-50 -63 -93 -63 -96 0 -4 -12 -22 -27 -42 l-27 -35 25 -19 c13 -10 29 -19 34
-19 6 0 41 48 80 106 81 125 114 154 174 154 49 0 74 -11 119 -53 52 -50 44
-98 -34 -209 -19 -26 -34 -50 -34 -53 0 -3 -16 -26 -36 -52 l-36 -47 28 -23
c15 -12 31 -20 35 -17 8 5 31 37 123 174 47 70 51 80 54 146 4 71 4 72 -34
114 -47 52 -104 79 -165 80 -45 0 -46 0 -41 31 5 31 -8 49 -35 49 -6 0 -22
-15 -35 -32z"/>
<path d="M3652 8045 c-54 -24 -97 -62 -120 -108 -12 -24 -22 -50 -22 -57 0 -8
-9 -5 -25 10 -23 22 -25 22 -50 6 -14 -9 -25 -20 -25 -24 0 -4 39 -62 88 -129
48 -67 127 -179 175 -247 l88 -126 25 16 c31 21 30 42 -4 84 -16 19 -41 56
-56 83 l-28 47 41 0 c54 0 146 44 177 86 59 77 58 185 -2 275 -57 84 -174 122
-262 84z m133 -74 c22 -10 54 -35 70 -57 26 -33 30 -48 30 -100 0 -67 -7 -81
-69 -126 -55 -40 -118 -39 -175 3 -50 35 -71 80 -71 147 0 59 33 109 88 134
47 22 77 22 127 -1z"/>
<path d="M7521 7820 c-26 -36 -37 -37 -68 -8 l-23 22 -22 -22 -22 -22 28 -29
28 -29 -101 -105 c-130 -138 -145 -188 -78 -258 51 -51 72 -62 96 -49 29 15
26 36 -8 56 -42 25 -57 56 -42 91 6 15 51 71 99 122 l88 95 46 -42 c52 -48 63
-51 79 -20 10 19 7 26 -30 60 -22 22 -41 43 -41 47 0 4 11 22 25 41 26 35 23
50 -15 70 -13 7 -22 2 -39 -20z"/>
<path d="M3193 7660 c-97 -49 -149 -135 -141 -235 5 -63 39 -118 102 -168 38
-30 45 -32 126 -32 76 0 89 3 128 28 23 15 56 49 72 75 26 41 30 57 30 119 0
39 -4 83 -10 98 -25 65 -146 145 -221 145 -14 0 -53 -14 -86 -30z m156 -68
c19 -9 48 -34 65 -55 27 -33 31 -47 31 -99 0 -58 -2 -61 -47 -104 -43 -41 -51
-44 -100 -44 -63 1 -108 22 -143 69 -60 83 -35 197 55 238 38 17 101 15 139
-5z"/>
<path d="M7575 7428 c-103 -68 -140 -174 -95 -274 13 -27 34 -64 48 -82 31
-40 99 -82 135 -82 23 0 27 4 27 29 0 24 -5 31 -28 36 -28 6 -83 55 -116 105
-25 38 -21 109 9 145 l24 30 26 -30 c14 -16 46 -57 72 -90 26 -33 67 -84 91
-113 l45 -53 35 33 c106 101 91 263 -32 346 -43 29 -56 32 -120 32 -64 0 -77
-3 -121 -32z m214 -58 c33 -23 71 -86 71 -118 0 -26 -26 -86 -43 -100 -11 -9
-21 -2 -49 36 -20 26 -53 63 -72 82 -19 19 -36 39 -36 43 0 5 -9 21 -21 35
l-21 27 29 13 c39 17 105 9 142 -18z"/>
<path d="M2707 7397 c-20 -32 -12 -43 83 -113 44 -32 129 -95 188 -139 59 -44
131 -98 161 -119 l54 -38 22 28 22 28 -26 21 c-14 12 -100 77 -191 143 -91 67
-192 142 -226 167 -33 25 -63 45 -66 45 -3 0 -13 -10 -21 -23z"/>
<path d="M2770 7050 c-63 -8 -101 -38 -139 -111 -29 -53 -33 -68 -29 -118 5
-70 43 -132 108 -176 41 -27 53 -30 125 -30 72 0 84 3 123 30 23 16 57 52 75
80 27 44 31 59 32 120 0 68 -1 70 -25 70 -23 0 -25 -5 -31 -57 -11 -100 -82
-178 -164 -178 -77 0 -80 -10 76 264 36 64 38 70 22 82 -30 23 -103 33 -173
24z m96 -74 c4 -11 -28 -78 -76 -156 -5 -8 -17 -29 -26 -47 -28 -55 -39 -58
-70 -18 -49 65 -32 162 39 213 37 26 124 31 133 8z"/>
<path d="M7980 7014 c-96 -50 -107 -56 -135 -72 -11 -6 -48 -25 -82 -42 -66
-33 -78 -54 -47 -84 19 -20 17 -20 62 7 20 12 63 35 94 50 31 15 60 32 63 37
3 6 35 10 70 10 79 0 115 -26 140 -100 15 -46 15 -52 0 -84 -19 -40 -33 -50
-164 -118 -121 -63 -126 -67 -110 -101 7 -15 17 -27 24 -27 6 0 71 32 144 71
156 84 191 121 191 198 0 25 -9 64 -19 86 -19 43 -85 109 -121 120 l-22 7 21
15 c23 16 27 43 9 61 -17 17 -25 15 -118 -34z"/>
<path d="M2474 6633 c-6 -22 -1 -32 33 -62 139 -126 243 -224 243 -231 0 -13
-145 -30 -260 -30 -99 0 -111 -2 -130 -22 -11 -12 -20 -29 -20 -38 0 -14 8
-16 48 -14 26 2 122 8 214 14 211 13 237 22 238 80 0 25 -36 61 -308 308 -33
29 -50 28 -58 -5z"/>
<path d="M8155 6490 c-11 -5 -32 -11 -47 -14 -37 -8 -95 -60 -119 -107 -26
-52 -26 -145 1 -197 11 -21 38 -54 60 -72 l40 -33 -29 -18 c-23 -14 -28 -23
-24 -43 6 -30 24 -33 80 -12 39 13 91 29 223 66 76 22 143 42 215 65 22 8 54
16 72 20 30 6 31 8 21 36 -5 16 -13 31 -18 34 -4 2 -32 -2 -61 -11 -79 -22
-164 -43 -166 -41 0 1 5 20 13 42 19 55 18 85 -7 147 -28 72 -71 114 -135 133
-58 17 -89 18 -119 5z m152 -102 c31 -29 63 -94 63 -127 0 -44 -41 -108 -85
-133 -56 -31 -138 -31 -183 1 -39 27 -72 88 -72 132 0 62 53 129 119 150 46
15 131 3 158 -23z"/>
<path d="M2431 6110 c-58 -13 -104 -49 -131 -107 -32 -68 -36 -128 -12 -184
56 -129 209 -185 328 -119 79 44 114 115 114 228 0 65 -4 84 -21 105 -19 25
-21 26 -44 11 -23 -15 -23 -18 -10 -37 10 -14 15 -45 15 -88 0 -66 -1 -67 -47
-117 -78 -83 -137 -83 -114 0 7 24 16 75 20 113 5 39 15 96 22 127 7 32 10 60
7 64 -11 11 -82 13 -127 4z m66 -97 c-14 -92 -45 -244 -50 -250 -13 -12 -57
17 -87 58 -36 50 -38 84 -9 142 30 58 69 85 123 86 27 1 28 -1 23 -36z"/>
<path d="M8103 5623 c-3 -13 -3 -92 -1 -175 4 -143 6 -157 32 -211 48 -100
135 -156 254 -164 88 -7 153 18 219 83 75 74 93 139 93 330 0 107 -3 146 -12
149 -7 2 -140 6 -296 7 l-283 3 -6 -22z m525 -65 c19 -19 15 -173 -6 -233 -43
-126 -101 -170 -222 -169 -81 0 -116 13 -169 61 -16 16 -33 40 -36 56 -4 15
-11 30 -16 33 -5 3 -9 63 -9 135 l0 129 223 0 c160 0 226 -3 235 -12z"/>
<path d="M2330 5593 c-14 -3 -29 -8 -35 -13 -5 -4 -22 -10 -37 -14 -37 -8
-112 -85 -135 -137 -31 -70 -35 -112 -28 -273 l8 -149 86 8 c47 4 181 10 296
14 l210 6 -3 145 c-4 152 -16 216 -55 284 -54 96 -186 151 -307 129z m189
-111 c66 -40 111 -155 111 -283 0 -98 3 -96 -170 -98 -69 0 -160 -4 -204 -7
-61 -5 -80 -4 -87 7 -5 8 -9 64 -9 125 0 130 15 176 77 236 31 30 49 39 93 46
71 10 147 0 189 -26z"/>
<path d="M8175 4989 c-45 -13 -97 -61 -123 -112 -18 -36 -23 -63 -23 -126 0
-91 12 -124 44 -119 21 3 22 8 22 100 0 107 10 132 75 176 60 41 116 21 88
-31 -6 -12 -18 -53 -25 -92 -36 -182 -41 -210 -37 -217 3 -5 37 -8 76 -8 54 0
79 5 104 21 82 50 124 154 102 250 -15 65 -85 142 -144 158 -46 13 -116 13
-159 0z m201 -112 c66 -61 57 -173 -18 -228 -24 -16 -54 -29 -71 -29 l-29 0 7
58 c3 31 13 76 21 100 8 23 14 54 14 68 0 30 16 64 30 64 6 0 26 -15 46 -33z"/>
<path d="M2615 4659 c-77 -27 -148 -53 -157 -59 -10 -5 -25 -10 -34 -10 -9 0
-30 -6 -47 -14 -44 -18 -137 -53 -164 -61 -25 -7 -33 -31 -20 -61 l9 -21 66
24 c61 22 153 53 159 53 6 0 -3 -40 -10 -46 -11 -12 -8 -86 6 -125 17 -50 59
-103 104 -130 29 -18 51 -23 103 -23 85 1 161 39 205 104 26 40 30 53 30 115
-1 85 -27 142 -85 184 l-40 29 25 16 c29 19 32 37 8 58 -16 13 -32 10 -158
-33z m90 -93 c18 -8 48 -33 64 -57 63 -86 32 -186 -74 -235 -61 -29 -75 -29
-124 -4 -48 24 -87 70 -102 119 -10 33 -8 43 11 82 28 55 50 76 98 94 49 18
85 18 127 1z"/>
<path d="M8300 4433 c-14 -2 -108 -7 -210 -11 l-185 -7 0 -42 c0 -40 5 -46
157 -202 154 -156 158 -159 173 -138 8 12 15 26 15 32 0 6 -58 69 -130 140
-71 71 -130 135 -130 142 0 10 43 13 189 13 185 0 190 1 205 22 9 12 16 30 16
40 0 18 -32 22 -100 11z"/>
<path d="M2813 4129 c-158 -95 -178 -118 -178 -205 0 -83 39 -148 111 -185 50
-25 51 -26 33 -47 -17 -21 -16 -57 2 -68 9 -5 55 18 144 74 33 21 102 61 153
91 50 29 92 57 92 64 0 6 -9 21 -21 33 l-21 22 -59 -36 c-158 -98 -167 -102
-222 -102 -71 0 -147 73 -147 142 0 26 11 42 56 85 31 29 60 53 66 53 13 0
144 79 158 95 9 10 7 20 -5 39 -10 14 -20 26 -24 25 -3 0 -65 -36 -138 -80z"/>
<path d="M7770 4059 c-86 -52 -151 -174 -135 -250 11 -50 65 -32 65 22 0 35
26 98 53 127 48 52 133 77 170 50 15 -12 12 -21 -36 -95 -141 -222 -138 -216
-123 -238 18 -27 103 -49 159 -41 89 13 167 92 182 183 24 146 -79 263 -232
263 -52 0 -76 -5 -103 -21z m249 -125 c16 -20 21 -41 21 -86 0 -54 -3 -62 -38
-99 -39 -42 -92 -59 -146 -45 -33 8 -33 16 3 68 16 24 50 76 75 116 25 39 50
72 55 72 5 0 19 -12 30 -26z"/>
<path d="M3182 3684 c2 -23 9 -30 35 -35 68 -14 125 -80 131 -154 5 -67 -20
-124 -45 -103 -26 21 -134 138 -190 206 -20 23 -43 42 -52 42 -9 0 -32 -22
-51 -47 -32 -42 -35 -53 -38 -122 -3 -72 -1 -79 30 -126 40 -61 119 -105 188
-105 98 0 210 89 225 180 23 137 -67 276 -186 288 l-51 5 4 -29z m31 -277 c26
-33 47 -63 47 -68 0 -31 -109 -39 -153 -11 -61 41 -72 62 -72 134 0 55 3 70
20 82 19 14 23 12 65 -32 25 -26 66 -73 93 -105z"/>
<path d="M7482 3687 l-21 -23 77 -61 c42 -35 109 -88 147 -119 39 -30 93 -76
121 -100 28 -24 72 -60 97 -79 l47 -36 26 27 27 26 -29 24 c-16 14 -54 44 -84
67 -30 23 -64 50 -75 61 -11 10 -75 63 -142 117 -67 54 -124 103 -128 109 -11
17 -40 11 -63 -13z"/>
<path d="M7305 3481 c-22 -10 -56 -36 -76 -57 -105 -114 -89 -253 40 -351 40
-31 48 -33 119 -33 70 0 82 3 126 33 30 19 62 52 80 82 27 43 31 59 31 120 0
61 -4 75 -30 114 -16 24 -49 58 -73 75 -36 26 -54 31 -110 33 -49 2 -78 -2
-107 -16z m142 -62 c59 -22 113 -99 113 -160 0 -71 -88 -159 -159 -159 -64 0
-154 79 -167 146 -22 117 100 216 213 173z"/>
<path d="M3516 3433 c-3 -3 -6 -77 -6 -164 l0 -157 -27 -6 c-16 -2 -67 -8
-115 -11 -49 -4 -91 -12 -95 -18 -3 -5 3 -18 15 -28 19 -15 40 -16 193 -11
146 4 171 3 164 -9 -8 -14 -56 -76 -137 -178 -24 -29 -56 -71 -72 -93 l-30
-38 25 -18 c13 -9 28 -17 34 -17 5 0 36 34 68 75 32 41 85 109 118 150 153
194 199 254 199 260 0 9 -35 40 -45 40 -4 0 -27 -20 -49 -44 -37 -38 -48 -44
-100 -50 -44 -6 -61 -5 -67 6 -5 7 -9 72 -9 143 l-1 130 -28 22 c-16 12 -31
19 -35 16z"/>
<path d="M6890 3353 c-14 -9 -26 -17 -28 -19 -3 -2 46 -84 85 -143 31 -46 29
-51 -16 -51 -70 0 -101 -12 -152 -58 -51 -45 -64 -68 -79 -130 -9 -38 11 -125
34 -151 9 -10 16 -22 16 -28 0 -16 57 -61 97 -78 39 -16 129 -20 137 -6 3 4
18 11 33 14 39 9 88 55 116 111 23 46 24 46 42 26 21 -23 33 -25 58 -6 20 15
17 21 -107 216 -30 47 -69 108 -86 135 -17 28 -45 73 -63 102 -49 80 -58 86
-87 66z m127 -295 c9 -7 29 -31 45 -52 23 -31 28 -50 28 -93 0 -96 -60 -157
-154 -157 -92 0 -159 71 -159 170 0 62 29 109 85 138 38 19 129 16 155 -6z"/>
<path d="M3884 3056 c-13 -34 11 -49 82 -50 73 -1 101 -14 138 -64 24 -31 32
-100 17 -145 -15 -45 -82 -107 -119 -109 -48 -2 -86 4 -113 17 -30 16 -79 77
-79 99 0 11 -9 16 -30 16 -27 0 -30 -3 -30 -33 0 -24 10 -45 35 -74 42 -50 84
-76 148 -93 42 -11 56 -11 107 5 70 21 114 60 146 130 38 81 28 152 -33 232
-46 59 -99 83 -187 83 -57 0 -78 -4 -82 -14z"/>
<path d="M4347 2877 c-8 -12 -18 -38 -22 -57 -4 -19 -14 -47 -21 -62 -8 -15
-14 -37 -14 -50 0 -13 -7 -31 -15 -42 -21 -27 -29 -99 -16 -139 14 -41 51 -77
108 -106 33 -16 61 -21 128 -21 l86 0 -3 28 c-3 26 -5 27 -83 32 -90 6 -133
28 -161 82 -13 25 -13 35 -4 59 15 35 22 36 117 3 123 -42 180 -34 224 33 25
37 24 88 -1 129 -36 57 -151 96 -225 75 -36 -10 -37 -9 -31 14 5 18 1 27 -13
35 -28 15 -37 13 -54 -13z m190 -88 c40 -15 83 -59 83 -84 0 -35 -44 -75 -83
-75 -18 0 -37 4 -42 9 -6 5 -36 16 -67 25 -31 9 -59 20 -61 24 -10 15 24 78
51 95 31 19 78 22 119 6z"/>
<path d="M6335 2875 c-64 -32 -97 -69 -93 -104 4 -37 40 -40 59 -5 18 34 100
74 152 74 46 0 102 -24 122 -53 17 -25 6 -42 -33 -52 -15 -4 -40 -12 -57 -20
-74 -32 -212 -85 -223 -85 -32 0 -7 -56 56 -122 89 -93 267 -64 341 56 16 26
21 50 21 107 0 88 -25 146 -85 194 -34 27 -44 30 -123 33 -77 3 -93 0 -137
-23z m279 -222 c-2 -87 -100 -159 -183 -134 -45 13 -91 47 -91 66 0 14 12 20
120 65 30 12 69 28 85 36 17 7 39 12 50 11 17 -2 20 -9 19 -44z"/>
<path d="M6036 2777 c-14 -10 -17 -20 -11 -33 13 -33 36 -156 41 -219 6 -74
-15 -114 -76 -145 -31 -16 -40 -26 -40 -46 0 -13 6 -27 14 -30 21 -8 97 36
117 70 l18 30 12 -32 c12 -35 37 -42 62 -18 12 12 12 24 1 76 -7 34 -15 68
-18 77 -7 17 -32 130 -49 218 -13 65 -33 80 -71 52z"/>
<path d="M4809 2710 c-38 -20 -69 -79 -69 -131 0 -40 36 -104 66 -118 l27 -12
-36 -30 c-49 -40 -74 -107 -59 -157 25 -81 96 -117 262 -132 58 -5 122 -14
143 -20 22 -6 42 -9 45 -5 4 3 9 32 13 63 12 114 30 249 44 337 8 50 16 113
17 140 l3 50 -35 3 c-19 2 -67 9 -107 17 -106 22 -268 19 -314 -5z m352 -60
c22 -12 22 -2 3 -161 l-6 -51 -47 6 c-25 4 -81 11 -123 16 -42 5 -91 16 -107
24 -66 34 -80 102 -34 157 l27 32 133 -6 c73 -3 142 -11 154 -17z m-34 -272
c12 -10 14 -27 8 -91 -10 -114 -4 -108 -99 -101 -92 6 -192 38 -206 65 -6 10
-10 36 -10 57 0 33 6 45 32 68 33 27 33 27 147 21 67 -4 119 -11 128 -19z"/>
<path d="M5522 2703 c-25 -10 -34 -53 -17 -79 20 -30 45 -30 73 -1 28 30 28
52 0 71 -23 17 -34 18 -56 9z"/>
</g>
</svg>
